:SAMPLES-PER-SECOND 30
:FULLY-SPECIFIED
:DEGREES
1
root  78.3042 40.4214 -0.604827 -179.865 -87.4979 176.729
RightUpLeg  3.14102 -7.89687 -5.92931
RightLeg  3.69559 3.75235 2.99541
RightFoot  -2.27674 -0.057349 0.433921
RightToes  8.73114e-010 0 -3.6325e-017
Spine  0.0397075 0.320019 3.81247
Spine1  7.25525 0.959835 -2.76736
HEad  -2.36739 3.66381 -1.02965
LeftShoulder1  1.39164 -3.40906 -13.0531
LeftArm  -15.7044 7.6583 3.13006
LeftForeArm  8.54848 -2.48471 -2.58963
LeftHand  -0.244104 0.0205437 5.32207
RightShoulder  0.723153 0.877769 8.82788
RightArm  -21.6617 4.45313 -1.73036
RightForeArm  0.843946 -1.29804 3.04687
RightHand  -0.571243 0.451539 -11.3132
LeftUpLeg  5.927 5.86002 4.59238
LeftLeg  1.91539 8.39286 -3.56526
LeftFoot  -4.15116 0.111663 -1.48376
LeftToes  -7.64008e-011 1.13257e-010 -2.15718e-012
2
root  78.3006 40.4214 -0.602987 -179.813 -87.5066 176.675
RightUpLeg  3.15705 -7.91022 -5.94665
RightLeg  3.6884 3.76178 3.01292
RightFoot  -2.27674 -0.0574157 0.434957
RightToes  8.73114e-010 0 -3.6325e-017
Spine  0.0254996 0.302664 3.84681
Spine1  7.27361 0.962335 -2.85147
HEad  -2.42699 3.64256 -0.952457
LeftShoulder1  1.38235 -3.39393 -12.9535
LeftArm  -15.768 7.65127 3.05209
LeftForeArm  8.71829 -2.50546 -2.56407
LeftHand  -0.244104 0.0205437 5.32207
RightShoulder  0.7232 0.903401 8.91096
RightArm  -21.7025 4.42678 -1.79523
RightForeArm  0.801551 -1.32512 3.03433
RightHand  -0.573736 0.547611 -11.2585
LeftUpLeg  5.9288 5.86153 4.59247
LeftLeg  1.92283 8.37604 -3.56375
LeftFoot  -4.15051 0.110935 -1.47244
LeftToes  -7.64008e-011 1.13257e-010 -2.15718e-012
3
root  78.2914 40.4214 -0.598535 179.901 -87.485 177.001
RightUpLeg  3.14134 -7.91263 -5.94683
RightLeg  3.65955 3.7847 3.03307
RightFoot  -2.2763 -0.0581793 0.44681
RightToes  8.73114e-010 0 -3.6325e-017
Spine  -0.0372422 0.298822 3.89744
Spine1  7.28264 0.978124 -2.94946
HEad  -2.5385 3.54369 -0.828255
LeftShoulder1  1.36927 -3.36479 -12.8373
LeftArm  -15.8093 7.62985 2.96131
LeftForeArm  8.95936 -2.53235 -2.54886
LeftHand  -0.244104 0.0205437 5.32207
RightShoulder  0.72326 0.908084 9.01951
RightArm  -21.6877 4.38504 -1.89656
RightForeArm  0.824979 -1.29969 3.04403
RightHand  -0.576455 0.689446 -11.122
LeftUpLeg  5.89467 5.87174 4.5931
LeftLeg  1.93848 8.39272 -3.56972
LeftFoot  -4.1523 0.110119 -1.45976
LeftToes  -7.64008e-011 1.13257e-010 -2.15718e-012
4
root  78.2759 40.4214 -0.593849 179.66 -87.4304 177.281
RightUpLeg  3.12661 -7.90493 -5.94197
RightLeg  3.6349 3.82819 3.03453
RightFoot  -2.28256 -0.0604494 0.482047
RightToes  8.73114e-010 0 -3.6325e-017
Spine  -0.131948 0.321855 3.89891
Spine1  7.29677 1.00527 -2.98343
HEad  -2.57455 3.46057 -0.745678
LeftShoulder1  1.36199 -3.35468 -12.7527
LeftArm  -15.6965 7.62 2.90423
LeftForeArm  8.94355 -2.54262 -2.60131
LeftHand  -0.244104 0.0205437 5.32207
RightShoulder  0.725356 0.899241 9.09903
RightArm  -21.5372 4.33119 -1.99535
RightForeArm  0.835783 -1.16911 3.10792
RightHand  -0.567903 0.66811 -10.9758
LeftUpLeg  5.889 5.88951 4.59124
LeftLeg  1.93323 8.43972 -3.58333
LeftFoot  -4.17372 0.107194 -1.4143
LeftToes  -7.64008e-011 1.13257e-010 -2.15718e-012
5
root  78.2558 40.4214 -0.58993 179.918 -87.4014 177.005
RightUpLeg  3.16573 -7.90699 -5.96381
RightLeg  3.65119 3.87056 3.01848
RightFoot  -2.31814 -0.0623704 0.511864
RightToes  8.73114e-010 0 -3.6325e-017
Spine  -0.25427 0.320864 3.81364
Spine1  7.42096 0.991921 -2.92825
HEad  -2.55139 3.49975 -0.731595
LeftShoulder1  1.34991 -3.31345 -12.6891
LeftArm  -15.6281 7.62052 2.80322
LeftForeArm  8.78782 -2.52533 -2.63678
LeftHand  -0.244104 0.0205437 5.32207
RightShoulder  0.736098 0.954259 9.14149
RightArm  -21.4071 4.28468 -2.08242
RightForeArm  0.888926 -1.05408 3.15813
RightHand  -0.556872 0.609766 -10.865
LeftUpLeg  5.96574 5.88383 4.57317
LeftLeg  1.8966 8.45977 -3.58873
LeftFoot  -4.21341 0.105464 -1.3874
LeftToes  -7.64008e-011 1.13257e-010 -2.15718e-012
6
root  78.2385 40.4214 -0.584376 -179.725 -87.4308 176.603
RightUpLeg  3.23296 -7.92506 -6.00219
RightLeg  3.68411 3.8793 3.01156
RightFoot  -2.36221 -0.0628377 0.519117
RightToes  8.73114e-010 0 -3.6325e-017
Spine  -0.340717 0.268339 3.67256
Spine1  7.58132 0.908706 -2.78846
HEad  -2.60025 3.58179 -0.748334
LeftShoulder1  1.32827 -3.19875 -12.7045
LeftArm  -15.8121 7.58922 2.67291
LeftForeArm  8.93176 -2.46568 -2.55731
LeftHand  -0.244104 0.0205437 5.32207
RightShoulder  0.752718 1.05552 9.13959
RightArm  -21.4561 4.28982 -2.13243
RightForeArm  1.20724 -1.0862 3.12056
RightHand  -0.563274 0.750596 -10.7491
LeftUpLeg  6.04928 5.85878 4.54397
LeftLeg  1.87459 8.44185 -3.5756
LeftFoot  -4.24132 0.10792 -1.42558
LeftToes  -7.64008e-011 1.13257e-010 -2.15718e-012
